PathFileType	4	(X/Y/Z)	 s06c0303.trc
DataRate	CameraRate	NumFrames	NumMarkers	Units	OrigDataRate	OrigDataStartFrame	OrigNumFrames
200	200	4	48	mm	200	1501	2000
Frame#	Time	racr			lacr			c7			jug			rlel			rdr			llel			ldr			s2			lic			ric			lasi			rasi			rpsi			lpsi			rgt			lgt			rth1			rth2			rth3			rth4			rlfc			rmfc			rsh1			rsh2			rsh3			rsh4			rlmal			rcal			rtoe			rmt5			lth1			lth2			lth4			lth3			llfc			lmfc			llmal			lcal			lmt5			lsh1			lsh2			lsh3			lsh4			ltoe			SBIKE			LBIKE			RBIKE			
		X1	Y1	Z1	X2	Y2	Z2	X3	Y3	Z3	X4	Y4	Z4	X5	Y5	Z5	X6	Y6	Z6	X7	Y7	Z7	X8	Y8	Z8	X9	Y9	Z9	X10	Y10	Z10	X11	Y11	Z11	X12	Y12	Z12	X13	Y13	Z13	X14	Y14	Z14	X15	Y15	Z15	X16	Y16	Z16	X17	Y17	Z17	X18	Y18	Z18	X19	Y19	Z19	X20	Y20	Z20	X21	Y21	Z21	X22	Y22	Z22	X23	Y23	Z23	X24	Y24	Z24	X25	Y25	Z25	X26	Y26	Z26	X27	Y27	Z27	X28	Y28	Z28	X29	Y29	Z29	X30	Y30	Z30	X31	Y31	Z31	X32	Y32	Z32	X33	Y33	Z33	X34	Y34	Z34	X35	Y35	Z35	X36	Y36	Z36	X37	Y37	Z37	X38	Y38	Z38	X39	Y39	Z39	X40	Y40	Z40	X41	Y41	Z41	X42	Y42	Z42	X43	Y43	Z43	X44	Y44	Z44	X45	Y45	Z45	X46	Y46	Z46	X47	Y47	Z47	X48	Y48	Z48	
1501	7.5050	729.888378	1254.468588	-41.764061	752.772669	1229.744350	-355.418294	772.974714	1300.745191	-204.047141	689.348401	1163.144034	-191.223056	552.212972	1069.539059	62.339927	710.205102	929.178448	-38.892897	571.889932	1079.527215	-494.990129	709.298510	922.623989	-413.763932	191.117177	1268.730054	-256.634236	351.362882	1175.932891	-388.415216	299.803594	1191.052946	-64.741434	349.741849	1118.758336	-350.475739	332.016436	1146.175749	-96.012931	225.421609	1285.303860	-214.713755	231.909828	1284.406502	-273.755729	253.458722	1120.444628	-42.805986	312.484316	1123.663879	-423.416627	307.245910	992.887750	-18.974583	355.382779	916.083988	-17.870711	360.541130	829.132250	-27.031267	389.980257	929.149245	-28.446320	378.134848	721.261656	-38.569248	375.998395	697.243432	-147.627225	345.763320	602.416416	-18.257650	347.421852	517.411637	-39.125739	308.068330	440.342229	-47.089659	372.595787	516.389111	-71.192281	281.345668	366.197648	-54.542566	217.610996	351.795013	-103.548590	478.691105	258.493102	-92.081322	378.171358	268.594879	-25.859877	334.312342	1008.091455	-431.734213	387.102209	939.695522	-420.768779	416.684736	952.980476	-403.093768	400.202442	851.016502	-420.405514	398.455228	731.344591	-397.070673	391.345065	716.834198	-282.837456	102.108218	506.155054	-375.439211	52.753568	552.726753	-328.206720	91.008705	356.061611	-393.093198	317.320258	654.989367	-418.542116	264.200810	590.814302	-394.125215	182.663307	555.685821	-391.365039	282.911911	574.592029	-363.902334	130.584246	280.305949	-331.587586	-159.540165	855.356041	-206.642620	-56.053519	84.207894	-406.808506	-54.056473	80.749540	-9.274641	
1502	7.5100	732.368801	1249.204951	-42.912397	753.058167	1228.767354	-357.058145	774.494886	1298.165383	-205.482226	691.225119	1160.224272	-194.144671	552.696020	1066.773639	62.155654	710.400846	928.777602	-39.435506	572.197315	1079.007894	-496.617654	709.658305	922.600053	-414.509984	192.250111	1266.120997	-254.211772	351.029510	1175.661394	-387.304540	301.874769	1186.073272	-62.884967	349.818860	1117.825497	-349.958194	333.741713	1141.468612	-94.910856	226.361230	1282.426343	-211.745080	232.430064	1282.789425	-271.247846	253.558282	1114.792779	-42.332827	313.471755	1123.289916	-422.325943	303.520202	985.591674	-18.907859	350.532320	907.578511	-17.787902	352.470122	820.538125	-28.035127	384.836336	919.230823	-28.910134	368.490873	713.337641	-39.606109	365.218788	689.314407	-148.829425	338.133071	594.733426	-18.774820	341.004214	509.569144	-39.078186	302.706739	432.013741	-46.812489	366.164016	508.714415	-71.174758	277.869192	356.569807	-54.584906	214.294784	342.429363	-103.500433	474.874554	247.438207	-92.200436	374.407113	258.322977	-25.979028	336.756736	1008.755109	-432.443364	391.381215	941.770424	-421.673320	420.217114	955.523649	-403.125950	407.156412	853.577314	-423.288995	406.719005	735.509978	-398.923239	397.648393	718.583727	-286.523814	106.365025	516.131017	-376.100849	56.891459	562.896238	-328.594794	95.263037	366.071587	-392.908633	324.428494	660.865705	-420.334892	270.026560	597.997637	-395.362999	187.816447	564.556199	-392.210469	288.727942	581.196578	-365.410348	134.866368	290.605655	-331.432140	-159.614237	855.457810	-206.401531	-56.014270	84.275772	-406.756852	-54.163206	80.754909	-8.981521	
1503	7.5150	734.854492	1244.035302	-44.176399	753.308822	1228.014073	-358.710977	775.861688	1295.791449	-207.046276	693.221836	1157.365951	-197.175656	553.815310	1064.503018	62.417146	710.985443	928.225116	-39.508626	572.844343	1078.618977	-498.263052	709.933783	922.364986	-415.061385	193.201124	1263.412341	-251.528095	350.740025	1175.453384	-386.267465	303.440427	1180.600038	-61.559707	349.981819	1116.922445	-349.602462	334.609264	1136.128841	-94.465382	227.298982	1279.252655	-208.362762	233.019295	1281.372678	-269.303485	253.536969	1109.092464	-41.782833	314.281690	1122.940026	-421.306341	300.131095	978.617737	-18.770799	344.493198	899.336829	-18.291343	344.038451	812.369999	-28.484599	379.727852	910.185626	-29.322038	359.833089	706.234161	-40.776173	356.604758	682.027588	-149.511005	330.566591	587.259532	-19.090022	335.186762	502.042874	-38.889467	297.298870	423.961629	-46.540104	359.698313	501.798542	-71.051299	274.397524	347.315335	-54.516829	210.796141	333.924916	-103.438777	470.560179	236.295819	-92.100820	370.149210	248.168161	-25.928964	339.328221	1009.173166	-433.005642	396.085728	943.857518	-422.550591	423.913605	958.378978	-403.634402	414.937709	856.499808	-425.687750	415.180104	740.038853	-400.709798	406.268775	721.193289	-289.329937	111.354964	525.804834	-376.328573	61.358854	572.759092	-328.760107	100.186078	375.888263	-392.833033	332.003430	666.854510	-421.726896	276.486609	605.012484	-396.517212	193.623127	573.283219	-392.889879	294.966603	587.930962	-366.725520	139.788923	300.589009	-331.131628	-159.673361	855.514566	-206.300363	-55.956425	84.267402	-406.707219	-54.055823	80.721899	-8.946398	
1504	7.5200	737.218512	1239.169141	-45.566197	753.590447	1227.468038	-360.383573	777.016105	1293.549665	-208.692329	695.153985	1154.582597	-200.125616	555.431480	1062.471122	63.056980	711.727049	927.482290	-39.238937	573.222923	1078.045219	-499.624834	710.021754	922.022019	-415.456311	194.097561	1260.795396	-248.646799	350.199079	1175.200102	-385.048893	305.313296	1175.200632	-59.882149	350.166306	1116.003847	-349.244749	336.150368	1131.025587	-93.510598	228.478358	1276.083409	-205.480838	233.610454	1279.096805	-266.008649	253.715043	1103.290878	-41.397603	314.768612	1122.571742	-420.333926	296.470708	972.083035	-18.539085	339.376270	891.817259	-17.983917	336.558837	804.766940	-29.554893	374.330258	901.627583	-29.633453	351.530048	699.795746	-42.028635	346.462954	676.188746	-151.024600	323.242361	580.019503	-19.486598	328.824756	494.519402	-38.648587	291.960785	416.208046	-46.251938	353.068407	494.693058	-71.142532	270.489805	338.606160	-54.353597	207.089545	325.943162	-103.261396	465.633371	225.080399	-91.932691	365.401666	238.195970	-25.839347	342.060872	1009.509056	-433.579371	401.149960	946.223649	-423.477112	428.500137	961.567146	-404.347501	422.958733	859.565902	-426.996578	423.897940	745.013898	-402.538794	416.009466	724.739702	-291.553309	116.971954	535.337718	-376.581886	66.466483	582.229198	-328.843831	105.864799	385.416582	-392.686656	339.857665	672.967650	-422.792691	283.327487	611.979416	-397.570085	199.956468	581.734387	-393.543924	301.677425	594.540909	-367.886037	145.507486	310.278212	-330.958205	-159.626184	855.506465	-206.356263	-55.858254	84.232453	-406.634219	-53.900407	80.756073	-9.047496	
